<svg xmlns="http://www.w3.org/2000/svg" viewBox="0 0 109.01 137.92"><defs><style>.cls-1{isolation:isolate;}.cls-2,.cls-8{fill:#fff;}.cls-3{fill:#392722;}.cls-4{fill:#a1b41d;}.cls-5{opacity:0.6;}.cls-6,.cls-7{fill:#c3c800;}.cls-6,.cls-8{mix-blend-mode:multiply;}</style></defs><g class="cls-1"><g id="Calque_2" data-name="Calque 2"><g id="Calque_1-2" data-name="Calque 1"><path class="cls-2" d="M61.32,29.08l0-.07,0,0a.3.3,0,0,0,.07-.1,7.35,7.35,0,0,1,.62-.84l.13-.17a15.83,15.83,0,0,1,1.68-2.14c1-1,2.09-2,3.15-3a19.61,19.61,0,0,0,2-2.84,31,31,0,0,1,2.3-3.58,15.37,15.37,0,0,1,1.72-1.9,3.62,3.62,0,0,0,.67-.92,7.84,7.84,0,0,0,1-5.22s0-.07,0-.11a2.09,2.09,0,0,0-.31-.78,2.25,2.25,0,0,0-.63-.64,6.06,6.06,0,0,0-.86-.48l0,0a11.81,11.81,0,0,0-3-.87,6,6,0,0,0-.69-.14,5.87,5.87,0,0,1-2.91-1.4c-.34-.3-.65-.62-1-.88a2.16,2.16,0,0,0-2.55-.32,11.3,11.3,0,0,0-1.88,1.66c-.55.53-1,1.18-1.52,1.68A19.19,19.19,0,0,1,57.3,7.49c-.84.55-1.65,1.13-2.49,1.68a20.79,20.79,0,0,1-2,1.2c-2.38,1.18-4.85,2.15-7.28,3.23a4,4,0,0,0-.43.19,13.35,13.35,0,0,0-1.26.62,6.43,6.43,0,0,0-.71.49A.71.71,0,0,1,43,15c-.41.34-.81.7-1.2,1.05a1.53,1.53,0,0,0-.16.13s0,0-.08.07a.06.06,0,0,0,0-.05c-.95.82-1.87,1.66-2.81,2.5s-2,1.83-3,2.74a47.51,47.51,0,0,0-3.39,3.68A4.61,4.61,0,0,0,31.09,29a12.16,12.16,0,0,0,.65,2.16A3.79,3.79,0,0,1,32,33.08a3.69,3.69,0,0,1-.52,1.29,5.94,5.94,0,0,0-.87,2v0a2.46,2.46,0,0,0,0,.41A3.34,3.34,0,0,0,31.38,39l.1.1c.55.55,3.56,3.22,11,5a52,52,0,0,0,7.23,1.2.88.88,0,0,0,.29,0l.6.06a39.65,39.65,0,0,1,4.86.94,5.35,5.35,0,0,1,2,3.3,2.07,2.07,0,0,0,.17.55,1.27,1.27,0,0,0,1.71.6A1.3,1.3,0,0,0,59.71,49a1.51,1.51,0,0,0-.51-.55l-.14-.09a2.85,2.85,0,0,1-1.4-1.78,2.11,2.11,0,0,1,0-.67,1,1,0,0,1,0-.18v-.06a1.64,1.64,0,0,1,.69-.89,2.62,2.62,0,0,1,.92-.29h.81l.24,0,.22,0a3.53,3.53,0,0,1,1.59.53h0l.17.12.07.07a.61.61,0,0,0,.48.12h0a1.22,1.22,0,0,0,.75-.16,1.32,1.32,0,0,0,.7-1.2,1.42,1.42,0,0,0-.15-.63,1.33,1.33,0,0,0-1.39-.69h0l-.07,0-.09,0-.1,0h0c-.89.26-3.53.94-4.66.26l-.15-.11c-.41-.37-.51-1,0-2.08a3.94,3.94,0,0,1,1-.88,1.68,1.68,0,0,0,.71-.27,1.31,1.31,0,0,0,.37-1.78,1.36,1.36,0,0,0-.24-.24,1.29,1.29,0,0,0-1.56,0,1.35,1.35,0,0,0-.58,1.19,3.5,3.5,0,0,1-.84,1.15.06.06,0,0,1,0,0l-.53.44a4.81,4.81,0,0,1-1.2.62l0,.08a2.74,2.74,0,0,0,.82.76,3.48,3.48,0,0,1-1.08-.89l-.25-.36c-.09-.12-.14-.23-.21-.31a5.42,5.42,0,0,1-.27-.52c0-.1,0-.2,0-.29h0a.56.56,0,0,1-.07-.23,1.42,1.42,0,0,1-.05-.22,4,4,0,0,1,0-.5,2.75,2.75,0,0,1,0-.41.06.06,0,0,1,0,0,2.74,2.74,0,0,1,1.53-2.34c2.27-1.46,6.5-.38,6.5-.38l.5.22a0,0,0,0,0,0,0c1.41.67,3.73,2.14,4.13,4.55a1.48,1.48,0,0,0,.19.57,1.26,1.26,0,1,0,2.17-1.25,1.7,1.7,0,0,0-.55-.55L68,39a2.94,2.94,0,0,1-1.49-1.76,1.77,1.77,0,0,1,0-.69.55.55,0,0,1,0-.18s0-.06,0-.07a1.43,1.43,0,0,1,.66-.91,2.32,2.32,0,0,1,1-.32l.26,0a2.53,2.53,0,0,1,.55,0h.25a.93.93,0,0,0,.24,0,3.94,3.94,0,0,1,1.65.49h0a1.22,1.22,0,0,0,.19.12s0,.05.07.07a.59.59,0,0,0,.48.1h0a1.23,1.23,0,0,0,.79-.17,1.41,1.41,0,0,0,.7-1.25,1.4,1.4,0,0,0-1.65-1.28h-.08s0,0-.1,0a.16.16,0,0,1-.11,0v0c-.91.27-3.62,1-4.78.38,0,0-.12-.07-.16-.11-.44-.37-.56-1-.06-2.12a3.83,3.83,0,0,1,1-.92,1.6,1.6,0,0,0,.72-.28,1.33,1.33,0,0,0,.34-1.83,1.51,1.51,0,0,0-.26-.24,1.39,1.39,0,0,0-1.61,0A1.45,1.45,0,0,0,66,29.39a3.85,3.85,0,0,1-.82,1.19s0,0,0,0l-.53.48a5.1,5.1,0,0,1-1.23.65l-.07,0h0a.38.38,0,0,0-.1,0l-.46.05h-.05a2.52,2.52,0,0,1-.55,0,1.37,1.37,0,0,1-.91-.34,1.09,1.09,0,0,1-.33-.84,3.32,3.32,0,0,1,.3-1.23C61.22,29.28,61.29,29.16,61.32,29.08Zm4.43-15.84a2,2,0,0,1,.72-1.54,1.75,1.75,0,0,1,.62-.32l.19-.06a1.54,1.54,0,0,1,1.33.4h0a2,2,0,0,1,.57,1.13,2.44,2.44,0,0,1-1.6,2.49,1.43,1.43,0,0,1-1.28-.57v0a2.8,2.8,0,0,1-.57-1.33Z"/><path class="cls-2" d="M109,4.56v128.8a4.86,4.86,0,0,1-5.1,4.56H5.11A4.87,4.87,0,0,1,0,133.36V4.56A4.85,4.85,0,0,1,5.11,0h98.8A4.84,4.84,0,0,1,109,4.56Z"/><path class="cls-3" d="M21.81,62.63a5.66,5.66,0,0,0-1.68-.27,3.38,3.38,0,0,0-1.73.39V76.38H14.74V61.1a10.86,10.86,0,0,1,3-.87A33,33,0,0,1,22.53,60Z"/><path class="cls-3" d="M30.74,76.68a8,8,0,0,1-4.93-1.28,4.3,4.3,0,0,1-1.66-3.64,4.48,4.48,0,0,1,2.37-4.24,17.69,17.69,0,0,1,6.65-1.72v-.87a2.37,2.37,0,0,0-.83-2.06,4,4,0,0,0-2.39-.6,8.39,8.39,0,0,0-2.1.25,9.87,9.87,0,0,0-2,.74l-.84-2.1a13.35,13.35,0,0,1,2.42-.87,12.3,12.3,0,0,1,3.13-.36A6.79,6.79,0,0,1,35,61.23a5.18,5.18,0,0,1,1.62,4.27v10a10.27,10.27,0,0,1-2.5.84A15.69,15.69,0,0,1,30.74,76.68Zm2.43-9.14a10.91,10.91,0,0,0-4.25,1.2,3.13,3.13,0,0,0-1.36,2.9,2.75,2.75,0,0,0,.88,2.26,3.82,3.82,0,0,0,2.53.74,4.93,4.93,0,0,0,2.2-.45Z"/><path class="cls-3" d="M45.63,58.67l-3.18-2.33-3.23,2.33-1-.9,3-3.08a1.6,1.6,0,0,1,2.34,0l3,3.08Zm-5,17.71V60.23h3.63V76.38Z"/><path class="cls-3" d="M57.34,76.38V64.93a2.5,2.5,0,0,0-2.91-2.69,7.5,7.5,0,0,0-1.38.1,6.3,6.3,0,0,0-1.13.35V76.38H48.26V61.1A11.69,11.69,0,0,1,51,60.25a18.62,18.62,0,0,1,3.56-.32c2.24,0,3.87.47,4.88,1.39A4.6,4.6,0,0,1,61,64.87V76.38Z"/><path class="cls-3" d="M74,76.38V64.93a2.5,2.5,0,0,0-2.9-2.69,7.5,7.5,0,0,0-1.38.1,6.38,6.38,0,0,0-1.14.35V76.38H64.89V61.1a11.46,11.46,0,0,1,2.75-.85,18.73,18.73,0,0,1,3.57-.32c2.23,0,3.86.47,4.88,1.39a4.6,4.6,0,0,1,1.53,3.55V76.38Z"/><path class="cls-3" d="M84.39,69.64c.3,3,1.76,4.49,4.4,4.49a9.88,9.88,0,0,0,2.31-.24,7.31,7.31,0,0,0,1.76-.66l.87,2.31a9,9,0,0,1-2.23.82,13.31,13.31,0,0,1-3.1.32,7.06,7.06,0,0,1-5.48-2.19,8.89,8.89,0,0,1-2-6.23,9.32,9.32,0,0,1,1.84-6.13,6.23,6.23,0,0,1,5-2.2A5.8,5.8,0,0,1,92.64,62q1.64,2.09,1.63,6.19Zm3.29-7.46a2.92,2.92,0,0,0-2.57,1.39,7.7,7.7,0,0,0-.93,4.22l6.68-1A5.81,5.81,0,0,0,90,63.29,2.75,2.75,0,0,0,87.68,62.18Z"/><path class="cls-4" d="M54,99.7A2.78,2.78,0,0,1,52.12,99l-.09-.1-5.11-6.2a.76.76,0,0,0-.46-.16H15.14v-2H46.46a2.72,2.72,0,0,1,1.86.73l.09.1,5.12,6.19a.72.72,0,0,0,.92,0l5.2-6.29a2.74,2.74,0,0,1,1.87-.73H93.87v2H61.52a.76.76,0,0,0-.46.16L55.85,99A2.74,2.74,0,0,1,54,99.7Z"/><g class="cls-5"><path class="cls-3" d="M25.73,117.66v-7A1.52,1.52,0,0,0,24,109a4.84,4.84,0,0,0-.84.06,5.35,5.35,0,0,0-.69.21v8.37H20.18v-9.34a7.19,7.19,0,0,1,1.69-.52,11.17,11.17,0,0,1,2.17-.19,4.34,4.34,0,0,1,3,.85,2.81,2.81,0,0,1,.93,2.17v7Z"/><path class="cls-3" d="M33.9,117.85a4.93,4.93,0,0,1-3-.78,2.66,2.66,0,0,1-1-2.23,2.73,2.73,0,0,1,1.45-2.59,10.68,10.68,0,0,1,4.06-1v-.53a1.49,1.49,0,0,0-.5-1.27,2.52,2.52,0,0,0-1.46-.36,5.37,5.37,0,0,0-1.29.15,6.9,6.9,0,0,0-1.19.45l-.51-1.28a8.1,8.1,0,0,1,1.47-.53,7.45,7.45,0,0,1,1.92-.22,4.13,4.13,0,0,1,2.66.79,3.18,3.18,0,0,1,1,2.61v6.12a5.94,5.94,0,0,1-1.53.51A9.27,9.27,0,0,1,33.9,117.85Zm1.48-5.59a6.84,6.84,0,0,0-2.6.73,1.93,1.93,0,0,0-.82,1.78,1.69,1.69,0,0,0,.53,1.38,2.35,2.35,0,0,0,1.55.45,3,3,0,0,0,1.34-.27Z"/><path class="cls-3" d="M43.13,117.77a2.52,2.52,0,0,1-2-.77,2.76,2.76,0,0,1-.67-1.9v-5.88h-1.1v-1.43h1.1v-2.18l2.23-.63v2.81h1.61v1.43H42.65V115c0,.85.36,1.28,1.08,1.28a2,2,0,0,0,.53-.09v1.39a1.81,1.81,0,0,1-.46.14A3.71,3.71,0,0,1,43.13,117.77Z"/><path class="cls-3" d="M49.68,117.85a4.89,4.89,0,0,1-3-.78,2.64,2.64,0,0,1-1-2.23,2.75,2.75,0,0,1,1.45-2.59,10.74,10.74,0,0,1,4.07-1v-.53a1.47,1.47,0,0,0-.51-1.27A2.5,2.5,0,0,0,49.2,109a5.28,5.28,0,0,0-1.28.15,7,7,0,0,0-1.2.45l-.51-1.28a8.21,8.21,0,0,1,1.48-.53,7.32,7.32,0,0,1,1.91-.22,4.11,4.11,0,0,1,2.66.79,3.18,3.18,0,0,1,1,2.61v6.12a5.94,5.94,0,0,1-1.53.51A9.14,9.14,0,0,1,49.68,117.85Zm1.49-5.59a6.79,6.79,0,0,0-2.6.73,1.93,1.93,0,0,0-.83,1.78,1.69,1.69,0,0,0,.54,1.38,2.32,2.32,0,0,0,1.54.45,3.07,3.07,0,0,0,1.35-.27Z"/><path class="cls-3" d="M59.2,121.78a9.66,9.66,0,0,1-2-.18,4.44,4.44,0,0,1-1.41-.51l.62-1.47a4.58,4.58,0,0,0,1.08.43,4.71,4.71,0,0,0,1.28.18,2.26,2.26,0,0,0,1.73-.59,2.31,2.31,0,0,0,.54-1.65v-.62a3.82,3.82,0,0,1-1.85.37,3.58,3.58,0,0,1-2.88-1.29,5.28,5.28,0,0,1-1.09-3.52,5.77,5.77,0,0,1,1.22-3.9,4.41,4.41,0,0,1,3.56-1.42,8.21,8.21,0,0,1,1.87.19,4.05,4.05,0,0,1,1.33.52v9.48a3.88,3.88,0,0,1-1.08,3A4.15,4.15,0,0,1,59.2,121.78Zm1.89-12.63a2.34,2.34,0,0,0-1.15-.22,2,2,0,0,0-1.86,1,5.69,5.69,0,0,0-.6,2.89,5.26,5.26,0,0,0,.56,2.72,1.94,1.94,0,0,0,1.79.89,2.4,2.4,0,0,0,1.26-.31Z"/><path class="cls-3" d="M69.37,117.85a3.59,3.59,0,0,1-3-1.42,6,6,0,0,1-1.06-3.69,6.08,6.08,0,0,1,1-3.72,4,4,0,0,1,6.12,0,6.13,6.13,0,0,1,1,3.73,6.07,6.07,0,0,1-1,3.69A3.56,3.56,0,0,1,69.37,117.85Zm0-8.83a1.46,1.46,0,0,0-1.48,1,7.31,7.31,0,0,0-.41,2.69,7.05,7.05,0,0,0,.41,2.62,1.49,1.49,0,0,0,1.48,1,1.47,1.47,0,0,0,1.49-1,7.29,7.29,0,0,0,.39-2.63,7.61,7.61,0,0,0-.38-2.71A1.47,1.47,0,0,0,69.37,109Z"/><path class="cls-3" d="M79.81,109.26a3.52,3.52,0,0,0-1-.17,2.05,2.05,0,0,0-1.06.24v8.33H75.48v-9.34a6.86,6.86,0,0,1,1.85-.53,20.38,20.38,0,0,1,2.92-.16Z"/><path class="cls-3" d="M85.26,117.85a4.89,4.89,0,0,1-3-.78,2.64,2.64,0,0,1-1-2.23,2.75,2.75,0,0,1,1.45-2.59,10.79,10.79,0,0,1,4.07-1v-.53a1.47,1.47,0,0,0-.51-1.27,2.48,2.48,0,0,0-1.46-.36,5.28,5.28,0,0,0-1.28.15,6.6,6.6,0,0,0-1.19.45l-.52-1.28a8.21,8.21,0,0,1,1.48-.53,7.32,7.32,0,0,1,1.91-.22,4.11,4.11,0,0,1,2.66.79,3.18,3.18,0,0,1,1,2.61v6.12a6,6,0,0,1-1.52.51A9.29,9.29,0,0,1,85.26,117.85Zm1.49-5.59a6.79,6.79,0,0,0-2.6.73,1.93,1.93,0,0,0-.83,1.78,1.69,1.69,0,0,0,.54,1.38,2.32,2.32,0,0,0,1.54.45,3.07,3.07,0,0,0,1.35-.27Z"/></g><path class="cls-6" d="M62.38,7.19h0l-.25,0A.74.74,0,0,1,62.38,7.19Z"/><path class="cls-2" d="M67.07,14.59,67,14.54l-.11-.12h0a.53.53,0,0,1-.11-.14l.12.13.09.11s0,0,0,0Z"/><path class="cls-2" d="M67.24,14.74l0,0a.2.2,0,0,1-.08-.08.08.08,0,0,0,0,0A.18.18,0,0,1,67.24,14.74Z"/><path class="cls-2" d="M67.27,14.75h0Z"/><path class="cls-2" d="M67.32,14.79h0l0,0h0S67.32,14.77,67.32,14.79Z"/><path class="cls-2" d="M67.36,14.81h0Z"/><path class="cls-2" d="M67.07,14.59,67,14.54l-.11-.12h0a.53.53,0,0,1-.11-.14l.12.13.09.11s0,0,0,0Z"/><path class="cls-2" d="M67.24,14.74l0,0a.2.2,0,0,1-.08-.08.08.08,0,0,0,0,0A.18.18,0,0,1,67.24,14.74Z"/><path class="cls-2" d="M67.27,14.75h0Z"/><path class="cls-2" d="M67.32,14.79h0l0,0h0S67.32,14.77,67.32,14.79Z"/><path class="cls-2" d="M67.36,14.81h0Z"/><path class="cls-6" d="M61.54,29.66h0a.4.4,0,0,0,0,.15,1.57,1.57,0,0,0,0,.3v.17a3,3,0,0,1-.13-.42h0Z"/><path class="cls-6" d="M67.6,22.38h0c-.73.68-1.48,1.34-2.19,2l-.1.09.27-.26L65.8,24l.59-.56Z"/><path class="cls-6" d="M67.16,14.67a.18.18,0,0,1,.08.07l0,0Z"/><path class="cls-6" d="M67.27,14.75h0Z"/><path class="cls-6" d="M67.32,14.79h0l0,0h0S67.32,14.77,67.32,14.79Z"/><path class="cls-6" d="M67.8,15h-.06l0,0Z"/><path class="cls-6" d="M69.41,14a.37.37,0,0,1-.07.12.05.05,0,0,1,0,0A.54.54,0,0,0,69.41,14Z"/><path class="cls-6" d="M69.76,12.47a.08.08,0,0,0,0,0,1.08,1.08,0,0,0,0-.27.8.8,0,0,1,0,.21A.34.34,0,0,1,69.76,12.47Z"/><path class="cls-6" d="M73.65,14.06h0c-.16.14-.32.29-.47.45l.22-.23A2.73,2.73,0,0,1,73.65,14.06Z"/><path class="cls-2" d="M67.07,14.59,67,14.54l-.11-.12h0a.53.53,0,0,1-.11-.14l.12.13.09.11s0,0,0,0Z"/><path class="cls-2" d="M67.24,14.74l0,0a.2.2,0,0,1-.08-.08.08.08,0,0,0,0,0A.18.18,0,0,1,67.24,14.74Z"/><path class="cls-2" d="M67.27,14.75h0Z"/><path class="cls-2" d="M67.32,14.79h0l0,0h0S67.32,14.77,67.32,14.79Z"/><path class="cls-2" d="M67.36,14.81h0Z"/><path class="cls-7" d="M61.89,31.25l-.12-.1Z"/><path class="cls-7" d="M74.33,6.39a4.63,4.63,0,0,0-.79-.48,12.71,12.71,0,0,0-3-.92l-.68-.13a5.78,5.78,0,0,1-2.92-1.4c-.33-.29-.66-.61-1-.87a2.17,2.17,0,0,0-2.56-.34,12.91,12.91,0,0,0-1.88,1.67c-.54.54-.95,1.18-1.51,1.68a19.77,19.77,0,0,1-2.1,1.53c-.82.55-1.64,1.13-2.48,1.67a19,19,0,0,1-2,1.2c-2.37,1.18-4.84,2.15-7.27,3.24l-.44.17a11.62,11.62,0,0,0-1.27.64,4.29,4.29,0,0,0-.69.49,1.79,1.79,0,0,0-.14.13c-.4.33-.8.68-1.19,1l-.17.15s0,0-.08.06l0,0c-.95.82-1.88,1.65-2.82,2.5s-2,1.83-3,2.72a44.22,44.22,0,0,0-3.4,3.71,4.51,4.51,0,0,0-1.27,3.85,12.3,12.3,0,0,0,.66,2.17,3.88,3.88,0,0,1,.23,1.92A3.45,3.45,0,0,1,32,34a6,6,0,0,0-.87,2v0a3.37,3.37,0,0,0,.8,2.6h0l.08.08c.57.55,3.58,3.23,11,5a54.82,54.82,0,0,0,7.21,1.2l.29,0a5.58,5.58,0,0,0,.61,0,47.44,47.44,0,0,1,4.87.94,5.54,5.54,0,0,1,2,3.31,1.22,1.22,0,0,0,.17.55,1.26,1.26,0,0,0,1.7.6,1.27,1.27,0,0,0,.42-1.76,1.41,1.41,0,0,0-.5-.55L59.63,48a2.92,2.92,0,0,1-1.4-1.76,2.55,2.55,0,0,1,0-.68c0-.06,0-.12,0-.18s0-.05,0-.07a1.58,1.58,0,0,1,.67-.88,2.17,2.17,0,0,1,.94-.29h.26a3.24,3.24,0,0,1,.54,0c.06,0,.14,0,.23,0l.23,0a3.56,3.56,0,0,1,1.6.52h0a1,1,0,0,1,.18.13s.05,0,.07.06a.56.56,0,0,0,.47.11h0a1.23,1.23,0,0,0,.77-.15A1.35,1.35,0,0,0,64.77,43a1.34,1.34,0,0,0-1.39-.7h0l-.07,0-.08,0-.09,0h0c-.88.24-3.53.94-4.65.24l-.16-.11c-.41-.37-.5-1,0-2.08a4.51,4.51,0,0,1,1-.89,1.49,1.49,0,0,0,.7-.25,1.29,1.29,0,0,0,.36-1.78.67.67,0,0,0-.22-.25,1.33,1.33,0,0,0-1.58,0A1.41,1.41,0,0,0,58,38.54a4,4,0,0,1-.83,1.16h0l-.54.46a4,4,0,0,1-.56.34,1.49,1.49,0,0,1-.18-.71,2.84,2.84,0,0,1,.24-.68.86.86,0,0,0,.27-.32.7.7,0,0,0-.29-.95l-.17-.05A.77.77,0,0,0,55.16,39a2.12,2.12,0,0,1-.1.77.08.08,0,0,1,0,0l-.13.35-.08.15a5.93,5.93,0,0,1-.42-.72,1.15,1.15,0,0,1-.11-.29h0a.58.58,0,0,1-.07-.21,1.4,1.4,0,0,0-.06-.24c0-.16,0-.33,0-.49a2.69,2.69,0,0,1,0-.4s0,0,0-.06a2.77,2.77,0,0,1,1.52-2.35,9.49,9.49,0,0,1,3.49-1.24l.49-.07c1.33-.14,4.57-.28,5.57,1.58a3.36,3.36,0,0,1,.44,1.91,1.46,1.46,0,0,0,0,.42.89.89,0,1,0,1.7-.48,1.1,1.1,0,0,0-.29-.46.29.29,0,0,0-.09-.09,2.1,2.1,0,0,1-.71-1.45,2,2,0,0,1,.1-.47.26.26,0,0,1,0-.12s0,0,0-.05a1.17,1.17,0,0,1,.61-.52,1.39,1.39,0,0,1,.71,0h0l.16,0a3.2,3.2,0,0,1,.39.1l.17,0a.49.49,0,0,0,.16.06,3,3,0,0,1,1,.61h0s.07.08.09.12a.2.2,0,0,1,.06.07.41.41,0,0,0,.31.14h0a.93.93,0,0,0,.55,0,1,1,0,0,0,.7-.73.81.81,0,0,0,0-.46,1,1,0,0,0-.87-.7h-.22c-.67,0-2.65.11-3.33-.56a.75.75,0,0,1-.09-.09c-.24-.33-.22-.79.32-1.46a2.71,2.71,0,0,1,.84-.46,1.27,1.27,0,0,0,.53-.07.94.94,0,0,0,.54-1.19.86.86,0,0,0-.13-.2,1,1,0,0,0-1.1-.25,1.06,1.06,0,0,0-.61.75,2.5,2.5,0,0,1-.76.67s0,0,0,0l-.38.2-.08,0a4.16,4.16,0,0,1-.45.16h0a1.4,1.4,0,0,1-.21-.78,1,1,0,0,1,0-.12.45.45,0,0,1,0-.08l0-.05a4.27,4.27,0,0,1,.18-.43,1,1,0,0,0,.26-.32.7.7,0,0,0-.3-.95.24.24,0,0,0-.16-.05.73.73,0,0,0-.77.41.81.81,0,0,0,0,.73,2.2,2.2,0,0,1-.1.79h0l-.15.37a1.89,1.89,0,0,1-.31.49,1.28,1.28,0,0,1-.23.08l-.07,0a0,0,0,0,1,0,0l-.12,0-.46.06h-.05a4.68,4.68,0,0,1-.53,0h.05s-2.13.2-2.42.28a18.43,18.43,0,0,1-2.92.63h0A5.1,5.1,0,0,1,54.47,32l-.32-.19a5.71,5.71,0,0,1-2-2.52c.13.08,3.45,2,5.29-.32h0l4.73-6.85,1.58-2.29a.79.79,0,0,0,0-.09l0-.08c.12-.26.25-.52.4-.79s.35-.68.55-1,.31-.58.47-.86l.16-.26a.54.54,0,0,1,.07-.13l.08-.13.16-.26.16-.25c.18-.32.39-.63.59-.94s.27-.41.41-.61h0a.53.53,0,0,1-.11-.14,1.4,1.4,0,0,0-.1-.16.91.91,0,0,1-.09-.17l-.08-.17a2.26,2.26,0,0,1-.18-.7h0a1.15,1.15,0,0,0,0-.19,2,2,0,0,1,.73-1.55l.28-.19.17-.07.17-.07.19,0a1.44,1.44,0,0,1,.85.09.8.8,0,0,1,.24.13l.07,0,0,0h0l0,0,0,0h0l.27-.32.15-.15.14-.15.22-.25.22-.22v0h0L70.4,10l.08-.09.1-.09h0a1.06,1.06,0,0,1,.09-.11.43.43,0,0,0,.1-.09c.29-.29.59-.55.87-.79l.15-.13.31-.25.15-.11.2-.17h0l0,0,0,0,0,0c.06-.05.13-.08.18-.13l.18-.11h0l0,0,.07-.05.07,0a.18.18,0,0,1,.07,0l.05,0,0,0,.13-.08a.45.45,0,0,0,.14-.06l.26-.14.13,0h0l.07,0h0l.2-.08.21-.07h.06l.06,0,.11,0a0,0,0,0,1,0,0h.19l0,0A2,2,0,0,0,74.33,6.39ZM52.77,33.62h0ZM62.38,7.19l-.25,0a.74.74,0,0,1,.25,0Z"/><path class="cls-7" d="M52.8,33.62h0Z"/><path class="cls-7" d="M62.13,7.24a.74.74,0,0,1,.25,0h0Z"/><path class="cls-7" d="M69.07,11.26h0l0,0Z"/><path class="cls-7" d="M74.71,7.07l-.17,0,.06,0Z"/><path class="cls-7" d="M66.9,14.4h0a.53.53,0,0,1-.11-.14Z"/><path class="cls-7" d="M67.86,11l-.19,0-.17.06.17-.07Z"/><path class="cls-7" d="M69.08,11.27h0l0,0,0,0Z"/><path class="cls-7" d="M69.19,11.34h0s0,0,0,0Z"/><polygon class="cls-7" points="69.2 11.35 69.2 11.36 69.19 11.35 69.2 11.35"/><path class="cls-2" d="M69.77,12.5a1.55,1.55,0,0,1,0,.48,1.51,1.51,0,0,1-.05.28.74.74,0,0,0,0,.14,2.21,2.21,0,0,1-.21.5.26.26,0,0,1,0,.09.54.54,0,0,1-.1.16l-.11.16-.13.15-.13.13-.14.11-.14.1h0a1,1,0,0,1-.23.12l-.24.07H67.8l-.11,0a.49.49,0,0,1-.16,0l-.14-.07,0,0h0s0,0,0,0h0s0,0,0,0h-.07a.18.18,0,0,0-.08-.07.08.08,0,0,1,0,0,.1.1,0,0,1-.05,0l0-.05s0,0,0,0l-.09-.11-.12-.13a1.4,1.4,0,0,0-.1-.16.91.91,0,0,1-.09-.17l-.08-.17a2.26,2.26,0,0,1-.18-.7h0a1.15,1.15,0,0,0,0-.19,2,2,0,0,1,.73-1.55l.28-.19.17-.07.17-.06.19,0a1.44,1.44,0,0,1,.85.09.8.8,0,0,1,.24.13l.07,0,0,0h0l0,0s0,0,0,0h0l.09.09.08.09a.65.65,0,0,1,.1.15.18.18,0,0,1,0,.07l.06.1,0,.07h0l0,.07a.14.14,0,0,0,0,.06.38.38,0,0,0,0,.1,1.08,1.08,0,0,1,0,.27.08.08,0,0,1,0,0A0,0,0,0,1,69.77,12.5Z"/><path class="cls-2" d="M67.27,14.75h0Z"/><path class="cls-2" d="M67.8,15h-.06l0,0Z"/><path class="cls-2" d="M67.36,14.81h0Z"/><path class="cls-2" d="M67.86,11l-.19,0-.17.06.17-.07Z"/><path class="cls-2" d="M69.19,11.34h0s0,0,0,0Z"/><polygon class="cls-2" points="69.2 11.35 69.2 11.36 69.19 11.35 69.2 11.35"/><path class="cls-7" d="M52.76,33.63h0Z"/><path class="cls-7" d="M52.8,33.62h0Z"/><polygon class="cls-7" points="61.53 29.66 61.53 29.67 61.32 29.88 61.32 29.88 61.31 29.88 61.53 29.66"/><polygon class="cls-7" points="61.54 29.65 61.54 29.66 61.54 29.66 61.54 29.66 61.54 29.65"/><path class="cls-7" d="M61.56,29.59l0,.06A.11.11,0,0,1,61.56,29.59Z"/><path class="cls-7" d="M61.91,28.69v0l0,.05,0-.05A0,0,0,0,1,61.91,28.69Z"/><path class="cls-7" d="M61.93,28.64v0a0,0,0,0,1,0,0Z"/><path class="cls-7" d="M62.7,27.59l-.08.1s0,0-.06.07l.06-.07Z"/><polygon class="cls-7" points="62.76 27.51 62.76 27.52 62.76 27.52 62.76 27.51 62.76 27.51"/><path class="cls-7" d="M67.07,14.59,67,14.54l-.11-.12h0l.09.11s0,0,0,0Z"/><path class="cls-7" d="M67.2,14.71a.2.2,0,0,1-.08-.08.08.08,0,0,0,0,0Z"/><path class="cls-7" d="M67.36,14.81h0Z"/><path class="cls-7" d="M74.51,7.13h0l-.21.06.21-.07Z"/><path class="cls-7" d="M74.71,7.07l-.17,0,.06,0Z"/><path class="cls-6" d="M52.8,33.62h0Z"/><path class="cls-6" d="M74.31,13.14l-.1.17s-.07.1-.1.16l0,.09-.13.18h0c-.05.05-.09.12-.14.17s0,0-.05,0a.43.43,0,0,1-.09.1l-.24.22h0l-.23.24A13.32,13.32,0,0,0,71.91,16c-.33.43-.64.86-.92,1.3-.39.6-.76,1.21-1.12,1.82-.08.15-.17.31-.26.45a21.89,21.89,0,0,1-2,2.84l-1.2,1.1-.6.56-.22.21-.27.26,0,0-.06.06-.2.19-.19.19-.37.39c-.24.25-.46.51-.68.77l-.42.53a9.6,9.6,0,0,0-.59.83h0a0,0,0,0,0,0,0l0,.06-.08.1,0,.07c-.15.18-.35.46-.56.77l-.07.09v0h0v0l0,0a0,0,0,0,0,0,0l0,.05a.69.69,0,0,1,0,.1,2,2,0,0,0-.09.2l0,.08,0,.07a0,0,0,0,0,0,0l0,.11,0,.08c0,.07,0,.12,0,.17a.14.14,0,0,0,0,.06s0,0,0,0h0l-.2.21h0a2.3,2.3,0,0,0,.13.42.41.41,0,0,0,0,.11.71.71,0,0,0,0,.21,1,1,0,0,0,.21.43h0l0,0a.22.22,0,0,0,.05.06.42.42,0,0,0,.12.1l.14.08.1.05.06,0,.09,0,.11,0,.1,0,.1,0h.15s-2.13.2-2.42.28a18.43,18.43,0,0,1-2.92.63h0A5.1,5.1,0,0,1,54.47,32l-.32-.19a5.71,5.71,0,0,1-2-2.52c.13.08,3.45,2,5.29-.32h0l4.73-6.85,1.58-2.29a.79.79,0,0,0,0-.09l0-.08.09-.16c.1-.21.2-.42.31-.63s.36-.68.55-1,.31-.58.47-.86l.16-.26a.54.54,0,0,1,.07-.13l.08-.13.16-.26.16-.25c.18-.32.39-.63.59-.94s.27-.41.41-.61l.11.12.07.05a.1.1,0,0,0,.05,0,.2.2,0,0,0,.08.08l0,0h0l0,0h0s0,0,0,0h0l0,0,.14.07a.49.49,0,0,0,.16,0l0,0a.07.07,0,0,0,.06,0h.38l.24-.07a1,1,0,0,0,.23-.12h0l.14-.1.14-.11.13-.13.13-.15.11-.16a.05.05,0,0,0,0,0,.37.37,0,0,0,.07-.12.26.26,0,0,0,0-.09,2.21,2.21,0,0,0,.21-.5.74.74,0,0,1,0-.14,1.51,1.51,0,0,0,.05-.28,1.55,1.55,0,0,0,0-.48,0,0,0,0,0,0,0,.08.08,0,0,0,0,0s0,0,0-.06a.8.8,0,0,0,0-.21.38.38,0,0,1,0-.1.14.14,0,0,1,0-.06l0-.07h0l0-.07-.06-.1a.18.18,0,0,0,0-.07.65.65,0,0,0-.1-.15l-.08-.09-.09-.09h0l.27-.32.15-.15.14-.15.22-.25.22-.22v0h0L70.4,10l.08-.09.1-.09h0a1.06,1.06,0,0,1,.09-.11.43.43,0,0,0,.1-.09c.29-.29.59-.55.87-.79l.15-.13.31-.25.15-.11.2-.17h0l0,0,0,0,0,0c.06-.05.13-.08.18-.13l.1,0s.06,0,.08-.06h0l0,0,.07-.05.07,0a.18.18,0,0,1,.07,0l.05,0,0,0,.13-.08a.45.45,0,0,0,.14-.06l.26-.14.13,0h0l.07,0h0l.2-.08.21-.06h.06l.17,0a0,0,0,0,1,0,0H75a2.17,2.17,0,0,1,.3.77s0,.06,0,.11A7.82,7.82,0,0,1,74.31,13.14Z"/><path class="cls-8" d="M61.71,29.15l0,.09v0Z"/><path class="cls-6" d="M61.48,30.61a1.06,1.06,0,0,0,.21.44A.9.9,0,0,1,61.48,30.61Z"/><path class="cls-6" d="M61.5,29.83c0,.1,0,.21,0,.3v.17a3,3,0,0,1-.13-.42h0l.23-.22h0A1,1,0,0,0,61.5,29.83Z"/><path class="cls-6" d="M65.21,24.61l.06-.07-.06.07L65,24.8Z"/><path class="cls-6" d="M65.58,24.25l-.17.17-.1.09Z"/><path class="cls-6" d="M67.07,14.59,67,14.54l-.11-.12h0l.09.11s0,0,0,0Z"/><path class="cls-6" d="M67.2,14.71a.2.2,0,0,1-.08-.08.08.08,0,0,0,0,0Z"/><path class="cls-6" d="M67.36,14.81h0Z"/><path class="cls-6" d="M73.75,14l-.1.1a2.73,2.73,0,0,0-.25.23,2.73,2.73,0,0,1,.25-.23Z"/><path class="cls-6" d="M74.71,7.07l-.17,0,.06,0Z"/><path class="cls-6" d="M74.31,13.14l-.1.17s-.07.1-.1.16l0,.09-.13.18h0c-.05.05-.09.12-.14.17s0,0-.05,0a.43.43,0,0,1-.09.1l-.24.22h0l-.23.24A13.32,13.32,0,0,0,71.91,16c-.33.43-.64.86-.92,1.3-.39.6-.76,1.21-1.12,1.82-.08.15-.17.31-.26.45a18.93,18.93,0,0,1-1.48,2.18A9.65,9.65,0,0,1,67,23l-.57.53-.6.56-.22.21-.27.26,0,0-.06.06-.2.19-.19.19-.37.39c-.24.25-.46.51-.68.77l-.42.53a9.6,9.6,0,0,0-.59.83h0a0,0,0,0,0,0,0l0,.06-.08.1,0,.07c-.15.18-.35.46-.56.77l-.07.09v0h0v0l0,0a0,0,0,0,0,0,0l0,.05a.69.69,0,0,1,0,.1,2,2,0,0,0-.09.2l0,.08,0,.07a0,0,0,0,0,0,0l0,.11,0,.08c0,.07,0,.12,0,.17a.14.14,0,0,0,0,.06s0,0,0,0h0l-.2.21h0a2.3,2.3,0,0,0,.13.42.41.41,0,0,0,0,.11.71.71,0,0,0,0,.21,1,1,0,0,0,.21.43h0l0,0a.22.22,0,0,0,.05.06.42.42,0,0,0,.12.1l.14.08.1.05.06,0,.09,0,.11,0,.1,0,.1,0h.15s-2.13.2-2.42.28a18.43,18.43,0,0,1-2.92.63h0A5.1,5.1,0,0,1,54.47,32l-.32-.19a5.71,5.71,0,0,1-2-2.52c.13.08,3.45,2,5.29-.32h0l4.73-6.85,1.58-2.29a.79.79,0,0,0,0-.09l0-.08.09-.16c.1-.21.2-.42.31-.63s.36-.68.55-1,.31-.58.47-.86l.16-.26a.54.54,0,0,1,.07-.13l.08-.13.16-.26.16-.25c.18-.32.39-.63.59-.94s.27-.41.41-.61l.11.12.07.05a.1.1,0,0,0,.05,0,.2.2,0,0,0,.08.08l0,0h0l0,0h0s0,0,0,0h0l0,0,.14.07a.49.49,0,0,0,.16,0l0,0a.07.07,0,0,0,.06,0h.38l.24-.07a1,1,0,0,0,.23-.12h0l.14-.1.14-.11.13-.13.13-.15.11-.16a.05.05,0,0,0,0,0,.37.37,0,0,0,.07-.12.26.26,0,0,0,0-.09,2.21,2.21,0,0,0,.21-.5.74.74,0,0,1,0-.14,1.51,1.51,0,0,0,.05-.28,1.55,1.55,0,0,0,0-.48,0,0,0,0,0,0,0,.08.08,0,0,0,0,0s0,0,0-.06a.8.8,0,0,0,0-.21.38.38,0,0,1,0-.1.14.14,0,0,1,0-.06l0-.07h0l0-.07-.06-.1a.18.18,0,0,0,0-.07.65.65,0,0,0-.1-.15l-.08-.09-.09-.09h0l.27-.32.15-.15.14-.15.22-.25.22-.22v0h0L70.4,10l.08-.09.1-.09h0a1.06,1.06,0,0,1,.09-.11.43.43,0,0,0,.1-.09c.29-.29.59-.55.87-.79l.15-.13.31-.25.15-.11.2-.17h0l0,0,0,0,0,0c.06-.05.13-.08.18-.13l.1,0s.06,0,.08-.06h0l0,0,.07-.05.07,0a.18.18,0,0,1,.07,0l.05,0,0,0,.13-.08a.45.45,0,0,0,.14-.06l.26-.14.13,0h0l.07,0h0l.2-.08.21-.06h.06l.17,0a0,0,0,0,1,0,0H75a2.17,2.17,0,0,1,.3.77s0,.06,0,.11A7.82,7.82,0,0,1,74.31,13.14Z"/></g></g></g></svg>